<?xml version="1.0" encoding="UTF-8"?>
<svg id="Layer_2" data-name="Layer 2" xmlns="http://www.w3.org/2000/svg" viewBox="0 0 100.55 200.49">
  <defs>
    <style>
      .cls-1 {
        fill: none;
      }
    </style>
  </defs>
  <path d="M94.1,119.8c-7.86-45.95-58.97-18.55-58.97-18.55V14.39h-10.32v173.71s.01,0,.02-.01c.01,0,.03-.01.04-.02,2.51-1.01,70-25.27,69.23-68.27ZM35.13,171.29c-.16.07-.24.11-.24.11v-56.76s.08-.05.24-.13c3.08-1.68,34.92-18.43,40.3,3.08,7.81,31.25-36.62,52.04-40.3,53.7Z"/>
  <path d="M35.13,114.51v56.78c-.16.07-.24.11-.24.11v-56.76s.08-.05.24-.13Z"/>
  <path d="M35.13,114.51v56.78c-.16.07-.24.11-.24.11v-56.76s.08-.05.24-.13Z"/>
  <path class="cls-1" d="M35.13,114.51v56.78c-.16.07-.24.11-.24.11v-56.76s.08-.05.24-.13Z"/>
</svg>