<svg xmlns="http://www.w3.org/2000/svg" xml:space="preserve" width="800" height="800" viewBox="0 0 460 460"><path d="M308.275 215.934a10.476 10.476 0 0 0-9.91-.751l-24.512 10.901v-51.529l33.558-14.917a10.477 10.477 0 0 0 6.222-9.709l-.533-41.616a10.479 10.479 0 0 0-14.735-9.44l-24.512 10.901V10.478C273.853 4.692 269.161 0 263.374 0s-10.478 4.692-10.478 10.478v108.616l-45.792 20.365V50.316c0-5.787-4.692-10.478-10.478-10.478s-10.478 4.692-10.478 10.478v98.464l-33.488 14.893a10.478 10.478 0 0 0-6.221 9.555l-.073 41.852c-.013 7.629 7.852 12.654 14.734 9.593l25.047-11.134v51.55l-33.488 14.893a10.478 10.478 0 0 0-6.221 9.555l-.073 41.852c-.013 7.629 7.852 12.654 14.734 9.593l25.047-11.134V449.52c0 5.787 4.692 10.478 10.478 10.478s10.478-4.692 10.478-10.478V320.534l45.792-20.355v109.503c0 5.787 4.692 10.478 10.478 10.478s10.478-4.692 10.478-10.478V290.865l33.558-14.917a10.477 10.477 0 0 0 6.222-9.709l-.533-41.616a10.472 10.472 0 0 0-4.822-8.689zm-140.924-16.972.033-18.902 124.965-55.576.24 18.809-125.238 55.669zm39.753 5.263 45.792-20.355v51.534l-45.792 20.365v-51.544zm-39.753 111.047.033-18.902 124.965-55.576.24 18.809-125.238 55.669z"/></svg>