<svg xmlns="http://www.w3.org/2000/svg" xml:space="preserve" width="800" height="800" viewBox="0 0 459.889 459.889"><path d="M310.138 274.839c.197-18.678-5.973-35.675-16.929-46.63-14.351-14.351-36.018-17.934-56.75-11.495-4.476-19.904-9.113-39.879-13.671-59.445 3.706-4.763 7.307-9.278 10.782-13.634 24.694-30.958 42.536-53.327 38.402-92.602-3.566-33.879-15.748-45.525-25.339-49.33-9.226-3.661-19.637-1.357-28.558 6.321-20.27 17.447-35.488 64.636-21 127.011 1.346 5.795 2.711 11.657 4.089 17.571-8.521 11.282-17.693 24.235-26.945 39.363-28.073 45.896-26.966 79.653-21.094 99.891 5.945 20.491 19.521 37.243 37.244 45.959 17.589 8.65 35.056 12.09 51.405 10.454 2.894 19.703 4.808 37.689 5.328 53.007-5.372-2.577-11.572-4.057-18.175-4.057-20.402 0-37 14.056-37 31.333s16.598 31.333 37 31.333c19.905 0 34.485-13.283 36.596-26.11 3.518-21.373 1.309-53.042-4.184-90.106 10.505-3.993 20.278-10.368 28.993-19.083 12.384-12.381 19.602-30.515 19.806-49.751zM231.124 23.182c1.796-1.546 4.242-3.184 6.544-3.184.542 0 1.076.091 1.592.295 4.51 1.789 10.573 11.46 12.822 32.833 3.276 31.12-10.81 48.779-34.147 78.036l-.949 1.191-.428-1.842c-13.367-57.551 1.841-96.375 14.566-107.329zm-31.927 296.689c-12.503-6.149-22.545-18.704-26.863-33.585-6.811-23.475-.259-52.48 18.948-83.882a439.443 439.443 0 0 1 15.862-24.109c3.581 15.446 7.216 31.268 10.761 47.138a81.286 81.286 0 0 0-13.377 10.822c-3.905 3.905-3.905 10.237 0 14.142 3.906 3.906 10.236 3.906 14.143 0a63.34 63.34 0 0 1 3.935-3.618c6.114 28.214 11.741 56.122 16.068 81.861-12.284.99-25.555-1.922-39.477-8.769zm29.732 120.018c-9.056 0-17-5.296-17-11.333s7.944-11.333 17-11.333 17 5.296 17 11.333c0 6.038-7.944 11.333-17 11.333zm47.263-129.44c-5.612 5.612-11.656 9.945-18.074 12.99-4.641-27.383-10.698-57.018-17.317-87.194 14.282-5.016 28.927-3.234 38.267 6.106 14.374 14.374 15.902 49.319-2.876 68.098z"/></svg>