<svg xmlns="http://www.w3.org/2000/svg" data-name="Layer 2" viewBox="0 0 100.36 200.33"><path d="M47.25 140.52s-20.34-22.04 3.02-28.94c20.31-6 29.34 28.51 12.04 34.12-15.61 5.07-36.29 6.19-42.12-23.29-5.48-27.72 32.47-33.5 44.71-74.35 11-36.75-10.35-40.72-10.35-40.72S39.06 6.01 37.37 31.1s2.15 28.32 3.38 35.82l21.97 105.31s2.65 31.1-26.06 18.16c0 0 13.94.4 12.32-12.38-.97-7.68-9.06-13.78-16.06-9.71-9.09 5.29-6.22 16.21-5.03 18.97s2.78 7.9 15.65 9.71c.15.02 5.37.15 5.52.13 12.79-.88 18.27-6.23 18.42-19.67C67.61 166.03 44.1 64 44.1 64c-6-18.97.99-41.54 10.35-42.79 14.44-1.94 6.62 22.57-7.71 38.65C30.77 77.77 6.61 82.34 10.21 123.1c5.85 43.09 86.47 36.45 68.79-7.29-13.5-33.41-48.74-12.62-48.71 2.35 0 2.93-2.35 14.59 16.94 22.35Z"/></svg>